<svg xmlns="http://www.w3.org/2000/svg" xmlns:xlink="http://www.w3.org/1999/xlink" viewBox="77.25 122.65 869.57 348.58" preserveAspectRatio="xMidYMid meet" version="1.0"><defs><filter x="0%" y="0%" width="100%" height="100%" id="58aa1e7ccc"><feColorMatrix values="0 0 0 0 1 0 0 0 0 1 0 0 0 0 1 0 0 0 1 0" color-interpolation-filters="sRGB"/></filter><g/><clipPath id="871e5aaa0e"><path d="M 77.246094 109.152344 L 946.824219 109.152344 L 946.824219 485.46875 L 77.246094 485.46875 Z M 77.246094 109.152344 " clip-rule="nonzero"/></clipPath><clipPath id="21ec3f133f"><path d="M 0.246094 0.152344 L 869.824219 0.152344 L 869.824219 376.46875 L 0.246094 376.46875 Z M 0.246094 0.152344 " clip-rule="nonzero"/></clipPath><clipPath id="3e7d23e933"><path d="M 0.25 13.648438 L 869.820312 13.648438 L 869.820312 362.226562 L 0.25 362.226562 Z M 0.25 13.648438 " clip-rule="nonzero"/></clipPath><clipPath id="305216737c"><rect x="0" width="870" y="0" height="377"/></clipPath><clipPath id="bd5a54bb05"><path d="M 0.246094 0.152344 L 869.824219 0.152344 L 869.824219 376.46875 L 0.246094 376.46875 Z M 0.246094 0.152344 " clip-rule="nonzero"/></clipPath><clipPath id="bbce7d5915"><rect x="0" width="870" y="0" height="377"/></clipPath><clipPath id="180d6c12c1"><rect x="0" width="870" y="0" height="377"/></clipPath><mask id="b8a3756400"><g filter="url(#58aa1e7ccc)"><g transform="matrix(1, 0, 0, 1, 0, -0.000000000000056843)"><g clip-path="url(#180d6c12c1)"><g clip-path="url(#bd5a54bb05)"><g transform="matrix(1, 0, 0, 1, 0, -0.000000000000056843)"><g clip-path="url(#bbce7d5915)"><g fill="#000000" fill-opacity="1"><g transform="translate(139.679397, 212.30019)"><g><path d="M 32.03125 -31.890625 C 33.238281 -31.890625 34.492188 -31.632812 35.796875 -31.125 C 37.109375 -30.613281 38.367188 -29.941406 39.578125 -29.109375 L 39.5 -29.109375 C 40.707031 -28.265625 41.640625 -27.117188 42.296875 -25.671875 C 42.953125 -24.234375 43.28125 -22.585938 43.28125 -20.734375 L 43.28125 -11.171875 C 43.28125 -7.398438 42.019531 -4.582031 39.5 -2.71875 C 38.289062 -1.832031 37.046875 -1.144531 35.765625 -0.65625 C 34.484375 -0.175781 33.238281 0.0625 32.03125 0.0625 L 16.828125 0.0625 C 15.609375 0.0625 14.359375 -0.175781 13.078125 -0.65625 C 11.804688 -1.144531 10.566406 -1.832031 9.359375 -2.71875 C 6.835938 -4.582031 5.578125 -7.398438 5.578125 -11.171875 L 5.578125 -15.78125 C 5.578125 -17.957031 6.953125 -19.046875 9.703125 -19.046875 C 12.492188 -19.046875 13.890625 -17.957031 13.890625 -15.78125 L 13.890625 -11.71875 C 13.890625 -10.507812 14.238281 -9.414062 14.9375 -8.4375 C 15.632812 -7.46875 16.84375 -6.984375 18.5625 -6.984375 L 30.296875 -6.984375 C 32.015625 -6.984375 33.222656 -7.46875 33.921875 -8.4375 C 34.617188 -9.414062 34.96875 -10.507812 34.96875 -11.71875 L 34.96875 -20.171875 C 34.96875 -21.335938 34.617188 -22.421875 33.921875 -23.421875 C 33.222656 -24.421875 32.015625 -24.921875 30.296875 -24.921875 L 16.828125 -24.921875 C 14.398438 -24.921875 11.910156 -25.800781 9.359375 -27.5625 C 6.835938 -29.519531 5.578125 -32.335938 5.578125 -36.015625 L 5.578125 -44.328125 C 5.578125 -46.179688 5.898438 -47.816406 6.546875 -49.234375 C 7.203125 -50.660156 8.140625 -51.816406 9.359375 -52.703125 L 9.28125 -52.703125 C 10.488281 -53.492188 11.742188 -54.144531 13.046875 -54.65625 C 14.347656 -55.164062 15.609375 -55.421875 16.828125 -55.421875 L 32.03125 -55.421875 C 33.238281 -55.421875 34.492188 -55.164062 35.796875 -54.65625 C 37.109375 -54.144531 38.367188 -53.492188 39.578125 -52.703125 L 39.5 -52.703125 C 40.707031 -51.816406 41.640625 -50.660156 42.296875 -49.234375 C 42.953125 -47.816406 43.28125 -46.179688 43.28125 -44.328125 L 43.28125 -40.203125 C 43.28125 -38.015625 41.882812 -36.921875 39.09375 -36.921875 C 36.34375 -36.921875 34.96875 -38.015625 34.96875 -40.203125 L 34.96875 -43.6875 C 34.96875 -44.851562 34.617188 -45.925781 33.921875 -46.90625 C 33.222656 -47.882812 32.015625 -48.375 30.296875 -48.375 L 18.5625 -48.375 C 16.84375 -48.375 15.632812 -47.882812 14.9375 -46.90625 C 14.238281 -45.925781 13.890625 -44.851562 13.890625 -43.6875 L 13.890625 -36.578125 C 13.890625 -35.367188 14.238281 -34.285156 14.9375 -33.328125 C 15.632812 -32.367188 16.84375 -31.890625 18.5625 -31.890625 Z M 32.03125 -31.890625 "/></g></g></g><g fill="#000000" fill-opacity="1"><g transform="translate(188.328576, 212.30019)"><g><path d="M 10.046875 0.0625 C 8.328125 0.0625 7.164062 -0.375 6.5625 -1.25 C 5.957031 -2.132812 5.65625 -3.113281 5.65625 -4.1875 L 5.65625 -51.234375 C 5.65625 -52.304688 5.957031 -53.269531 6.5625 -54.125 C 7.164062 -54.988281 8.328125 -55.421875 10.046875 -55.421875 L 34.34375 -55.421875 C 36.0625 -55.421875 36.96875 -54.253906 37.0625 -51.921875 C 37.15625 -49.554688 36.25 -48.375 34.34375 -48.375 L 13.890625 -48.375 L 13.890625 -6.984375 L 35.59375 -6.984375 C 37.3125 -6.984375 38.195312 -5.84375 38.25 -3.5625 C 38.34375 -1.144531 37.457031 0.0625 35.59375 0.0625 Z M 31.75 -28.828125 C 31.75 -27.203125 31.179688 -25.828125 30.046875 -24.703125 C 28.910156 -23.585938 27.523438 -23.03125 25.890625 -23.03125 C 24.304688 -23.03125 22.957031 -23.585938 21.84375 -24.703125 C 20.726562 -25.828125 20.171875 -27.203125 20.171875 -28.828125 C 20.171875 -30.453125 20.726562 -31.820312 21.84375 -32.9375 C 22.957031 -34.0625 24.304688 -34.625 25.890625 -34.625 C 27.523438 -34.625 28.910156 -34.0625 30.046875 -32.9375 C 31.179688 -31.820312 31.75 -30.453125 31.75 -28.828125 Z M 31.75 -28.828125 "/></g></g></g><g fill="#000000" fill-opacity="1"><g transform="translate(228.532201, 212.30019)"><g><path d="M 24.21875 -2.796875 C 24.21875 -0.554688 22.820312 0.5625 20.03125 0.5625 C 17.28125 0.5625 15.90625 -0.554688 15.90625 -2.796875 L 15.90625 -48.375 L 3.703125 -48.375 C 2.023438 -48.375 1.140625 -49.554688 1.046875 -51.921875 C 1.046875 -54.253906 1.929688 -55.421875 3.703125 -55.421875 L 36.4375 -55.421875 C 38.207031 -55.421875 39.046875 -54.253906 38.953125 -51.921875 C 38.953125 -49.554688 38.113281 -48.375 36.4375 -48.375 L 24.21875 -48.375 Z M 24.21875 -2.796875 "/></g></g></g><g fill="#000000" fill-opacity="1"><g transform="translate(268.107646, 212.30019)"><g><path d="M 9.984375 0.0625 C 8.265625 0.0625 7.097656 -0.375 6.484375 -1.25 C 5.878906 -2.132812 5.578125 -3.113281 5.578125 -4.1875 L 5.578125 -52.421875 C 5.578125 -54.648438 6.925781 -55.765625 9.625 -55.765625 C 12.414062 -55.765625 13.8125 -54.648438 13.8125 -52.421875 L 13.8125 -6.984375 L 37.125 -6.984375 C 38.800781 -6.984375 39.640625 -5.84375 39.640625 -3.5625 C 39.734375 -1.144531 38.894531 0.0625 37.125 0.0625 Z M 9.984375 0.0625 "/></g></g></g><g fill="#000000" fill-opacity="1"><g transform="translate(308.590462, 212.30019)"><g><path d="M 14.171875 -2.9375 C 14.171875 -0.695312 12.773438 0.421875 9.984375 0.421875 C 7.234375 0.421875 5.859375 -0.695312 5.859375 -2.9375 L 5.859375 -52.421875 C 5.859375 -54.648438 7.234375 -55.765625 9.984375 -55.765625 C 12.773438 -55.765625 14.171875 -54.648438 14.171875 -52.421875 Z M 14.171875 -2.9375 "/></g></g></g><g fill="#000000" fill-opacity="1"><g transform="translate(328.34328, 212.30019)"><g><path d="M 32.03125 -31.890625 C 33.238281 -31.890625 34.492188 -31.632812 35.796875 -31.125 C 37.109375 -30.613281 38.367188 -29.941406 39.578125 -29.109375 L 39.5 -29.109375 C 40.707031 -28.265625 41.640625 -27.117188 42.296875 -25.671875 C 42.953125 -24.234375 43.28125 -22.585938 43.28125 -20.734375 L 43.28125 -11.171875 C 43.28125 -7.398438 42.019531 -4.582031 39.5 -2.71875 C 38.289062 -1.832031 37.046875 -1.144531 35.765625 -0.65625 C 34.484375 -0.175781 33.238281 0.0625 32.03125 0.0625 L 16.828125 0.0625 C 15.609375 0.0625 14.359375 -0.175781 13.078125 -0.65625 C 11.804688 -1.144531 10.566406 -1.832031 9.359375 -2.71875 C 6.835938 -4.582031 5.578125 -7.398438 5.578125 -11.171875 L 5.578125 -15.78125 C 5.578125 -17.957031 6.953125 -19.046875 9.703125 -19.046875 C 12.492188 -19.046875 13.890625 -17.957031 13.890625 -15.78125 L 13.890625 -11.71875 C 13.890625 -10.507812 14.238281 -9.414062 14.9375 -8.4375 C 15.632812 -7.46875 16.84375 -6.984375 18.5625 -6.984375 L 30.296875 -6.984375 C 32.015625 -6.984375 33.222656 -7.46875 33.921875 -8.4375 C 34.617188 -9.414062 34.96875 -10.507812 34.96875 -11.71875 L 34.96875 -20.171875 C 34.96875 -21.335938 34.617188 -22.421875 33.921875 -23.421875 C 33.222656 -24.421875 32.015625 -24.921875 30.296875 -24.921875 L 16.828125 -24.921875 C 14.398438 -24.921875 11.910156 -25.800781 9.359375 -27.5625 C 6.835938 -29.519531 5.578125 -32.335938 5.578125 -36.015625 L 5.578125 -44.328125 C 5.578125 -46.179688 5.898438 -47.816406 6.546875 -49.234375 C 7.203125 -50.660156 8.140625 -51.816406 9.359375 -52.703125 L 9.28125 -52.703125 C 10.488281 -53.492188 11.742188 -54.144531 13.046875 -54.65625 C 14.347656 -55.164062 15.609375 -55.421875 16.828125 -55.421875 L 32.03125 -55.421875 C 33.238281 -55.421875 34.492188 -55.164062 35.796875 -54.65625 C 37.109375 -54.144531 38.367188 -53.492188 39.578125 -52.703125 L 39.5 -52.703125 C 40.707031 -51.816406 41.640625 -50.660156 42.296875 -49.234375 C 42.953125 -47.816406 43.28125 -46.179688 43.28125 -44.328125 L 43.28125 -40.203125 C 43.28125 -38.015625 41.882812 -36.921875 39.09375 -36.921875 C 36.34375 -36.921875 34.96875 -38.015625 34.96875 -40.203125 L 34.96875 -43.6875 C 34.96875 -44.851562 34.617188 -45.925781 33.921875 -46.90625 C 33.222656 -47.882812 32.015625 -48.375 30.296875 -48.375 L 18.5625 -48.375 C 16.84375 -48.375 15.632812 -47.882812 14.9375 -46.90625 C 14.238281 -45.925781 13.890625 -44.851562 13.890625 -43.6875 L 13.890625 -36.578125 C 13.890625 -35.367188 14.238281 -34.285156 14.9375 -33.328125 C 15.632812 -32.367188 16.84375 -31.890625 18.5625 -31.890625 Z M 32.03125 -31.890625 "/></g></g></g><g fill="#000000" fill-opacity="1"><g transform="translate(376.992448, 212.30019)"><g><path d="M 24.21875 -2.796875 C 24.21875 -0.554688 22.820312 0.5625 20.03125 0.5625 C 17.28125 0.5625 15.90625 -0.554688 15.90625 -2.796875 L 15.90625 -48.375 L 3.703125 -48.375 C 2.023438 -48.375 1.140625 -49.554688 1.046875 -51.921875 C 1.046875 -54.253906 1.929688 -55.421875 3.703125 -55.421875 L 36.4375 -55.421875 C 38.207031 -55.421875 39.046875 -54.253906 38.953125 -51.921875 C 38.953125 -49.554688 38.113281 -48.375 36.4375 -48.375 L 24.21875 -48.375 Z M 24.21875 -2.796875 "/></g></g></g><g fill="#000000" fill-opacity="1"><g transform="translate(416.567904, 212.30019)"><g/></g></g><g fill="#000000" fill-opacity="1"><g transform="translate(437.507284, 212.30019)"><g><path d="M 20.734375 -20.515625 C 19.941406 -20.515625 19.320312 -20.828125 18.875 -21.453125 C 18.4375 -22.085938 18.21875 -22.941406 18.21875 -24.015625 C 18.21875 -26.378906 19.191406 -27.5625 21.140625 -27.5625 L 28.546875 -27.5625 C 30.265625 -27.5625 31.484375 -28.050781 32.203125 -29.03125 C 32.929688 -30.007812 33.296875 -31.082031 33.296875 -32.25 L 33.296875 -43.6875 C 33.296875 -44.851562 32.929688 -45.925781 32.203125 -46.90625 C 31.484375 -47.882812 30.265625 -48.375 28.546875 -48.375 L 13.890625 -48.375 L 13.890625 -2.796875 C 13.890625 -0.554688 12.492188 0.5625 9.703125 0.5625 C 7.003906 0.5625 5.65625 -0.554688 5.65625 -2.796875 L 5.65625 -51.234375 C 5.65625 -52.910156 6.070312 -54.023438 6.90625 -54.578125 C 7.75 -55.140625 8.773438 -55.421875 9.984375 -55.421875 L 30.359375 -55.421875 C 31.523438 -55.421875 32.757812 -55.164062 34.0625 -54.65625 C 35.363281 -54.144531 36.617188 -53.492188 37.828125 -52.703125 L 37.765625 -52.703125 C 38.972656 -51.816406 39.898438 -50.660156 40.546875 -49.234375 C 41.203125 -47.816406 41.53125 -46.179688 41.53125 -44.328125 L 41.53125 -31.6875 C 41.53125 -27.914062 40.273438 -25.101562 37.765625 -23.25 C 36.554688 -22.363281 35.320312 -21.6875 34.0625 -21.21875 C 32.800781 -20.75 31.566406 -20.515625 30.359375 -20.515625 Z M 20.734375 -20.515625 "/></g></g></g><g fill="#000000" fill-opacity="1"><g transform="translate(484.062518, 212.30019)"><g><path d="M 14.171875 -2.9375 C 14.171875 -0.695312 12.773438 0.421875 9.984375 0.421875 C 7.234375 0.421875 5.859375 -0.695312 5.859375 -2.9375 L 5.859375 -52.421875 C 5.859375 -54.648438 7.234375 -55.765625 9.984375 -55.765625 C 12.773438 -55.765625 14.171875 -54.648438 14.171875 -52.421875 Z M 14.171875 -2.9375 "/></g></g></g><g fill="#000000" fill-opacity="1"><g transform="translate(503.815359, 212.30019)"><g><path d="M 43.203125 -11.171875 C 43.203125 -7.398438 41.945312 -4.582031 39.4375 -2.71875 C 38.226562 -1.832031 36.984375 -1.144531 35.703125 -0.65625 C 34.421875 -0.175781 33.175781 0.0625 31.96875 0.0625 L 16.75 0.0625 C 15.539062 0.0625 14.296875 -0.175781 13.015625 -0.65625 C 11.734375 -1.144531 10.488281 -1.832031 9.28125 -2.71875 C 8.070312 -3.65625 7.140625 -4.804688 6.484375 -6.171875 C 5.835938 -7.546875 5.515625 -9.210938 5.515625 -11.171875 L 5.515625 -44.328125 C 5.515625 -46.179688 5.835938 -47.816406 6.484375 -49.234375 C 7.140625 -50.660156 8.070312 -51.816406 9.28125 -52.703125 L 9.21875 -52.703125 C 10.425781 -53.492188 11.679688 -54.144531 12.984375 -54.65625 C 14.285156 -55.164062 15.539062 -55.421875 16.75 -55.421875 L 31.96875 -55.421875 C 33.175781 -55.421875 34.429688 -55.164062 35.734375 -54.65625 C 37.035156 -54.144531 38.289062 -53.492188 39.5 -52.703125 L 39.4375 -52.703125 C 40.644531 -51.816406 41.570312 -50.660156 42.21875 -49.234375 C 42.875 -47.816406 43.203125 -46.179688 43.203125 -44.328125 L 43.203125 -39.5 C 43.203125 -37.269531 41.804688 -36.15625 39.015625 -36.15625 C 36.265625 -36.15625 34.890625 -37.269531 34.890625 -39.5 L 34.890625 -43.6875 C 34.890625 -44.851562 34.539062 -45.925781 33.84375 -46.90625 C 33.144531 -47.882812 31.9375 -48.375 30.21875 -48.375 L 18.5 -48.375 C 16.769531 -48.375 15.554688 -47.882812 14.859375 -46.90625 C 14.160156 -45.925781 13.8125 -44.851562 13.8125 -43.6875 L 13.8125 -11.71875 C 13.8125 -10.507812 14.160156 -9.414062 14.859375 -8.4375 C 15.554688 -7.46875 16.769531 -6.984375 18.5 -6.984375 L 30.21875 -6.984375 C 31.9375 -6.984375 33.144531 -7.46875 33.84375 -8.4375 C 34.539062 -9.414062 34.890625 -10.507812 34.890625 -11.71875 L 34.890625 -15.78125 C 34.890625 -17.957031 36.265625 -19.046875 39.015625 -19.046875 C 41.804688 -19.046875 43.203125 -17.957031 43.203125 -15.78125 Z M 43.203125 -11.171875 "/></g></g></g><g fill="#000000" fill-opacity="1"><g transform="translate(551.557133, 212.30019)"><g><path d="M 35.109375 -54.578125 C 35.804688 -55.421875 36.597656 -55.84375 37.484375 -55.84375 C 38.460938 -55.84375 39.460938 -55.398438 40.484375 -54.515625 C 40.992188 -54.003906 41.421875 -53.488281 41.765625 -52.96875 C 42.117188 -52.457031 42.296875 -51.945312 42.296875 -51.4375 C 42.296875 -50.601562 41.992188 -49.882812 41.390625 -49.28125 L 32.03125 -38.390625 L 13.8125 -16.953125 L 13.8125 -2.9375 C 13.8125 -0.695312 12.414062 0.421875 9.625 0.421875 C 6.882812 0.421875 5.515625 -0.695312 5.515625 -2.9375 L 5.515625 -52.421875 C 5.515625 -54.648438 6.882812 -55.765625 9.625 -55.765625 C 12.414062 -55.765625 13.8125 -54.648438 13.8125 -52.421875 L 13.8125 -29.59375 Z M 25.203125 -21.421875 C 24.734375 -22.078125 24.5 -22.867188 24.5 -23.796875 C 24.5 -25.191406 25.082031 -26.3125 26.25 -27.15625 L 26.171875 -27.15625 C 27.097656 -27.800781 28.03125 -28.125 28.96875 -28.125 C 29.851562 -28.125 30.597656 -27.613281 31.203125 -26.59375 L 44.671875 -6.90625 L 44.59375 -6.984375 C 45.019531 -6.328125 45.234375 -5.628906 45.234375 -4.890625 C 45.234375 -3.679688 44.625 -2.609375 43.40625 -1.671875 L 43.484375 -1.671875 C 42.972656 -1.347656 42.484375 -1.09375 42.015625 -0.90625 C 41.546875 -0.71875 41.128906 -0.625 40.765625 -0.625 C 40.390625 -0.625 40.003906 -0.765625 39.609375 -1.046875 C 39.210938 -1.328125 38.828125 -1.675781 38.453125 -2.09375 Z M 25.203125 -21.421875 "/></g></g></g><g fill="#000000" fill-opacity="1"><g transform="translate(596.995649, 212.30019)"><g/></g></g><g fill="#000000" fill-opacity="1"><g transform="translate(617.935026, 212.30019)"><g><path d="M 1.25 -32.734375 L 0.84375 -33.5 C 1.488281 -35.914062 2.367188 -38.625 3.484375 -41.625 C 4.609375 -44.632812 5.726562 -47.367188 6.84375 -49.828125 L 11.375 -49.828125 C 10.957031 -48.066406 10.515625 -46.171875 10.046875 -44.140625 C 9.585938 -42.117188 9.171875 -40.117188 8.796875 -38.140625 C 8.421875 -36.160156 8.117188 -34.359375 7.890625 -32.734375 Z M 1.25 -32.734375 "/></g></g></g><g fill="#000000" fill-opacity="1"><g transform="translate(630.149661, 212.30019)"><g><path d="M 10.046875 0.0625 C 8.328125 0.0625 7.164062 -0.375 6.5625 -1.25 C 5.957031 -2.132812 5.65625 -3.113281 5.65625 -4.1875 L 5.65625 -51.234375 C 5.65625 -52.304688 5.957031 -53.269531 6.5625 -54.125 C 7.164062 -54.988281 8.328125 -55.421875 10.046875 -55.421875 L 34.34375 -55.421875 C 36.0625 -55.421875 36.96875 -54.253906 37.0625 -51.921875 C 37.15625 -49.554688 36.25 -48.375 34.34375 -48.375 L 13.890625 -48.375 L 13.890625 -6.984375 L 35.59375 -6.984375 C 37.3125 -6.984375 38.195312 -5.84375 38.25 -3.5625 C 38.34375 -1.144531 37.457031 0.0625 35.59375 0.0625 Z M 31.75 -28.828125 C 31.75 -27.203125 31.179688 -25.828125 30.046875 -24.703125 C 28.910156 -23.585938 27.523438 -23.03125 25.890625 -23.03125 C 24.304688 -23.03125 22.957031 -23.585938 21.84375 -24.703125 C 20.726562 -25.828125 20.171875 -27.203125 20.171875 -28.828125 C 20.171875 -30.453125 20.726562 -31.820312 21.84375 -32.9375 C 22.957031 -34.0625 24.304688 -34.625 25.890625 -34.625 C 27.523438 -34.625 28.910156 -34.0625 30.046875 -32.9375 C 31.179688 -31.820312 31.75 -30.453125 31.75 -28.828125 Z M 31.75 -28.828125 "/></g></g></g><g fill="#000000" fill-opacity="1"><g transform="translate(670.353274, 212.30019)"><g><path d="M 48.375 -55.765625 C 49.863281 -55.765625 51.488281 -55.414062 53.25 -54.71875 C 54.882812 -54.070312 55.703125 -52.835938 55.703125 -51.015625 L 55.703125 -2.9375 C 55.703125 -0.695312 54.328125 0.421875 51.578125 0.421875 C 48.835938 0.421875 47.46875 -0.695312 47.46875 -2.9375 L 47.46875 -38.8125 L 45.4375 -39.015625 L 42.640625 -29.9375 L 34.265625 -2.03125 C 33.753906 -0.394531 32.5 0.394531 30.5 0.34375 C 29.613281 0.300781 28.84375 0.0703125 28.1875 -0.34375 C 27.539062 -0.769531 27.101562 -1.375 26.875 -2.15625 L 21.84375 -18.421875 C 20.820312 -21.640625 19.796875 -24.910156 18.765625 -28.234375 C 17.742188 -31.554688 16.628906 -35.242188 15.421875 -39.296875 L 13.40625 -39.015625 L 13.40625 -2.9375 C 13.40625 -0.695312 12.03125 0.421875 9.28125 0.421875 C 6.539062 0.421875 5.171875 -0.695312 5.171875 -2.9375 L 5.171875 -51.015625 C 5.171875 -52.785156 5.984375 -54.019531 7.609375 -54.71875 C 9.328125 -55.414062 10.976562 -55.742188 12.5625 -55.703125 C 13.257812 -55.703125 13.976562 -55.609375 14.71875 -55.421875 C 15.46875 -55.234375 16.164062 -54.960938 16.8125 -54.609375 C 17.46875 -54.265625 18.050781 -53.820312 18.5625 -53.28125 C 19.070312 -52.75 19.46875 -52.132812 19.75 -51.4375 L 30.703125 -14.09375 C 31.492188 -16.84375 32.332031 -19.820312 33.21875 -23.03125 C 34.101562 -26.238281 35.007812 -29.492188 35.9375 -32.796875 C 36.875 -36.109375 37.796875 -39.378906 38.703125 -42.609375 C 39.609375 -45.847656 40.457031 -48.863281 41.25 -51.65625 C 41.53125 -52.300781 41.925781 -52.878906 42.4375 -53.390625 C 42.945312 -53.898438 43.523438 -54.328125 44.171875 -54.671875 C 44.828125 -55.023438 45.515625 -55.296875 46.234375 -55.484375 C 46.960938 -55.671875 47.675781 -55.765625 48.375 -55.765625 Z M 48.375 -55.765625 "/></g></g></g></g></g></g></g></g></g></mask><clipPath id="9d3d272869"><path d="M 0.25 13.648438 L 869.820312 13.648438 L 869.820312 362.226562 L 0.25 362.226562 Z M 0.25 13.648438 " clip-rule="nonzero"/></clipPath><clipPath id="384cc5f394"><rect x="0" width="870" y="0" height="377"/></clipPath><clipPath id="adf18ad030"><rect x="0" width="870" y="0" height="377"/></clipPath></defs><g clip-path="url(#871e5aaa0e)"><g transform="matrix(1, 0, 0, 1, 77, 109)"><g clip-path="url(#adf18ad030)"><g clip-path="url(#21ec3f133f)"><g mask="url(#b8a3756400)"><g transform="matrix(1, 0, 0, 1, 0, -0.000000000000056843)"><g clip-path="url(#384cc5f394)"><g clip-path="url(#9d3d272869)"><path fill="#ffffff" d="M 0.25 13.648438 L 0.25 362.226562 L 869.820312 362.226562 L 869.820312 13.648438 Z M 0.25 13.648438 " fill-rule="nonzero"/></g></g></g></g></g></g></g></g></svg>