<svg xmlns="http://www.w3.org/2000/svg" xmlns:xlink="http://www.w3.org/1999/xlink" viewBox="61.5 2.1 176.5 70.7" preserveAspectRatio="xMidYMid meet" version="1.0"><defs><filter x="0%" y="0%" width="100%" height="100%" id="619db68022"><feColorMatrix values="0 0 0 0 1 0 0 0 0 1 0 0 0 0 1 0 0 0 1 0" color-interpolation-filters="sRGB"/></filter><g/><clipPath id="e6958d1aca"><path d="M 0.996094 0 L 177.011719 0 L 177.011719 75 L 0.996094 75 Z M 0.996094 0 " clip-rule="nonzero"/></clipPath><clipPath id="086fc228a1"><path d="M 0.996094 0 L 177.011719 0 L 177.011719 75 L 0.996094 75 Z M 0.996094 0 " clip-rule="nonzero"/></clipPath><clipPath id="114c455179"><path d="M 0.996094 2.152344 L 177.011719 2.152344 L 177.011719 72.785156 L 0.996094 72.785156 Z M 0.996094 2.152344 " clip-rule="nonzero"/></clipPath><linearGradient x1="-373.88" gradientTransform="matrix(0.0755549, 0, 0, 0.0755629, 29.244942, 27.606536)" y1="130.5" x2="1955.755" gradientUnits="userSpaceOnUse" y2="130.5" id="bd75624a2c"><stop stop-opacity="1" stop-color="rgb(93.728638%, 26.669312%, 26.669312%)" offset="0"/><stop stop-opacity="1" stop-color="rgb(93.728638%, 26.669312%, 26.669312%)" offset="0.125"/><stop stop-opacity="1" stop-color="rgb(93.728638%, 26.669312%, 26.669312%)" offset="0.15625"/><stop stop-opacity="1" stop-color="rgb(93.54248%, 26.733398%, 26.852417%)" offset="0.164062"/><stop stop-opacity="1" stop-color="rgb(92.951965%, 26.93634%, 27.438354%)" offset="0.167969"/><stop stop-opacity="1" stop-color="rgb(92.546082%, 27.076721%, 27.839661%)" offset="0.171875"/><stop stop-opacity="1" stop-color="rgb(92.138672%, 27.215576%, 28.240967%)" offset="0.175781"/><stop stop-opacity="1" stop-color="rgb(91.732788%, 27.355957%, 28.642273%)" offset="0.179688"/><stop stop-opacity="1" stop-color="rgb(91.326904%, 27.496338%, 29.043579%)" offset="0.183594"/><stop stop-opacity="1" stop-color="rgb(90.921021%, 27.636719%, 29.446411%)" offset="0.1875"/><stop stop-opacity="1" stop-color="rgb(90.515137%, 27.775574%, 29.847717%)" offset="0.191406"/><stop stop-opacity="1" stop-color="rgb(90.109253%, 27.915955%, 30.249023%)" offset="0.195312"/><stop stop-opacity="1" stop-color="rgb(89.703369%, 28.05481%, 30.65033%)" offset="0.199219"/><stop stop-opacity="1" stop-color="rgb(89.297485%, 28.19519%, 31.051636%)" offset="0.203125"/><stop stop-opacity="1" stop-color="rgb(88.890076%, 28.335571%, 31.452942%)" offset="0.207031"/><stop stop-opacity="1" stop-color="rgb(88.484192%, 28.475952%, 31.855774%)" offset="0.210938"/><stop stop-opacity="1" stop-color="rgb(88.078308%, 28.614807%, 32.25708%)" offset="0.214844"/><stop stop-opacity="1" stop-color="rgb(87.672424%, 28.755188%, 32.658386%)" offset="0.21875"/><stop stop-opacity="1" stop-color="rgb(87.266541%, 28.894043%, 33.059692%)" offset="0.222656"/><stop stop-opacity="1" stop-color="rgb(86.860657%, 29.034424%, 33.460999%)" offset="0.226562"/><stop stop-opacity="1" stop-color="rgb(86.454773%, 29.174805%, 33.862305%)" offset="0.230469"/><stop stop-opacity="1" stop-color="rgb(86.048889%, 29.315186%, 34.263611%)" offset="0.234375"/><stop stop-opacity="1" stop-color="rgb(85.641479%, 29.454041%, 34.664917%)" offset="0.238281"/><stop stop-opacity="1" stop-color="rgb(85.235596%, 29.594421%, 35.067749%)" offset="0.242187"/><stop stop-opacity="1" stop-color="rgb(84.829712%, 29.733276%, 35.469055%)" offset="0.246094"/><stop stop-opacity="1" stop-color="rgb(84.423828%, 29.873657%, 35.870361%)" offset="0.25"/><stop stop-opacity="1" stop-color="rgb(84.017944%, 30.012512%, 36.271667%)" offset="0.253906"/><stop stop-opacity="1" stop-color="rgb(83.612061%, 30.152893%, 36.672974%)" offset="0.257812"/><stop stop-opacity="1" stop-color="rgb(83.204651%, 30.293274%, 37.07428%)" offset="0.261719"/><stop stop-opacity="1" stop-color="rgb(82.798767%, 30.433655%, 37.477112%)" offset="0.265625"/><stop stop-opacity="1" stop-color="rgb(82.392883%, 30.57251%, 37.878418%)" offset="0.269531"/><stop stop-opacity="1" stop-color="rgb(81.987%, 30.712891%, 38.279724%)" offset="0.273438"/><stop stop-opacity="1" stop-color="rgb(81.581116%, 30.851746%, 38.68103%)" offset="0.277344"/><stop stop-opacity="1" stop-color="rgb(81.175232%, 30.992126%, 39.082336%)" offset="0.28125"/><stop stop-opacity="1" stop-color="rgb(80.769348%, 31.132507%, 39.483643%)" offset="0.285156"/><stop stop-opacity="1" stop-color="rgb(80.363464%, 31.272888%, 39.886475%)" offset="0.289062"/><stop stop-opacity="1" stop-color="rgb(79.956055%, 31.411743%, 40.287781%)" offset="0.292969"/><stop stop-opacity="1" stop-color="rgb(79.550171%, 31.552124%, 40.689087%)" offset="0.296875"/><stop stop-opacity="1" stop-color="rgb(79.144287%, 31.690979%, 41.090393%)" offset="0.300781"/><stop stop-opacity="1" stop-color="rgb(78.738403%, 31.83136%, 41.491699%)" offset="0.304688"/><stop stop-opacity="1" stop-color="rgb(78.33252%, 31.971741%, 41.893005%)" offset="0.308594"/><stop stop-opacity="1" stop-color="rgb(77.926636%, 32.112122%, 42.295837%)" offset="0.3125"/><stop stop-opacity="1" stop-color="rgb(77.520752%, 32.250977%, 42.697144%)" offset="0.316406"/><stop stop-opacity="1" stop-color="rgb(77.114868%, 32.391357%, 43.09845%)" offset="0.320312"/><stop stop-opacity="1" stop-color="rgb(76.707458%, 32.530212%, 43.499756%)" offset="0.324219"/><stop stop-opacity="1" stop-color="rgb(76.301575%, 32.670593%, 43.901062%)" offset="0.328125"/><stop stop-opacity="1" stop-color="rgb(75.895691%, 32.809448%, 44.302368%)" offset="0.332031"/><stop stop-opacity="1" stop-color="rgb(75.489807%, 32.949829%, 44.7052%)" offset="0.335938"/><stop stop-opacity="1" stop-color="rgb(75.083923%, 33.09021%, 45.106506%)" offset="0.339844"/><stop stop-opacity="1" stop-color="rgb(74.67804%, 33.230591%, 45.507812%)" offset="0.34375"/><stop stop-opacity="1" stop-color="rgb(74.272156%, 33.369446%, 45.909119%)" offset="0.347656"/><stop stop-opacity="1" stop-color="rgb(73.866272%, 33.509827%, 46.310425%)" offset="0.351562"/><stop stop-opacity="1" stop-color="rgb(73.458862%, 33.648682%, 46.711731%)" offset="0.355469"/><stop stop-opacity="1" stop-color="rgb(73.052979%, 33.789062%, 47.113037%)" offset="0.359375"/><stop stop-opacity="1" stop-color="rgb(72.647095%, 33.929443%, 47.514343%)" offset="0.363281"/><stop stop-opacity="1" stop-color="rgb(72.241211%, 34.069824%, 47.917175%)" offset="0.367188"/><stop stop-opacity="1" stop-color="rgb(71.835327%, 34.208679%, 48.318481%)" offset="0.371094"/><stop stop-opacity="1" stop-color="rgb(71.429443%, 34.34906%, 48.719788%)" offset="0.375"/><stop stop-opacity="1" stop-color="rgb(71.022034%, 34.487915%, 49.121094%)" offset="0.378906"/><stop stop-opacity="1" stop-color="rgb(70.61615%, 34.628296%, 49.5224%)" offset="0.382812"/><stop stop-opacity="1" stop-color="rgb(70.210266%, 34.768677%, 49.923706%)" offset="0.386719"/><stop stop-opacity="1" stop-color="rgb(69.804382%, 34.909058%, 50.326538%)" offset="0.390625"/><stop stop-opacity="1" stop-color="rgb(69.398499%, 35.047913%, 50.727844%)" offset="0.394531"/><stop stop-opacity="1" stop-color="rgb(68.992615%, 35.188293%, 51.12915%)" offset="0.398438"/><stop stop-opacity="1" stop-color="rgb(68.586731%, 35.327148%, 51.530457%)" offset="0.402344"/><stop stop-opacity="1" stop-color="rgb(68.180847%, 35.467529%, 51.931763%)" offset="0.40625"/><stop stop-opacity="1" stop-color="rgb(67.773438%, 35.60791%, 52.333069%)" offset="0.410156"/><stop stop-opacity="1" stop-color="rgb(67.367554%, 35.748291%, 52.735901%)" offset="0.414062"/><stop stop-opacity="1" stop-color="rgb(66.96167%, 35.887146%, 53.137207%)" offset="0.417969"/><stop stop-opacity="1" stop-color="rgb(66.555786%, 36.027527%, 53.538513%)" offset="0.421875"/><stop stop-opacity="1" stop-color="rgb(66.149902%, 36.166382%, 53.939819%)" offset="0.425781"/><stop stop-opacity="1" stop-color="rgb(65.744019%, 36.306763%, 54.341125%)" offset="0.429688"/><stop stop-opacity="1" stop-color="rgb(65.338135%, 36.445618%, 54.742432%)" offset="0.433594"/><stop stop-opacity="1" stop-color="rgb(64.932251%, 36.585999%, 55.145264%)" offset="0.4375"/><stop stop-opacity="1" stop-color="rgb(64.524841%, 36.726379%, 55.54657%)" offset="0.441406"/><stop stop-opacity="1" stop-color="rgb(64.118958%, 36.86676%, 55.947876%)" offset="0.445312"/><stop stop-opacity="1" stop-color="rgb(63.713074%, 37.005615%, 56.349182%)" offset="0.449219"/><stop stop-opacity="1" stop-color="rgb(63.30719%, 37.145996%, 56.750488%)" offset="0.453125"/><stop stop-opacity="1" stop-color="rgb(62.901306%, 37.284851%, 57.151794%)" offset="0.457031"/><stop stop-opacity="1" stop-color="rgb(62.495422%, 37.425232%, 57.553101%)" offset="0.460937"/><stop stop-opacity="1" stop-color="rgb(62.089539%, 37.565613%, 57.954407%)" offset="0.464844"/><stop stop-opacity="1" stop-color="rgb(61.683655%, 37.705994%, 58.357239%)" offset="0.46875"/><stop stop-opacity="1" stop-color="rgb(61.276245%, 37.844849%, 58.758545%)" offset="0.472656"/><stop stop-opacity="1" stop-color="rgb(60.870361%, 37.985229%, 59.159851%)" offset="0.476562"/><stop stop-opacity="1" stop-color="rgb(60.464478%, 38.124084%, 59.561157%)" offset="0.480469"/><stop stop-opacity="1" stop-color="rgb(60.058594%, 38.264465%, 59.962463%)" offset="0.484375"/><stop stop-opacity="1" stop-color="rgb(59.65271%, 38.404846%, 60.36377%)" offset="0.488281"/><stop stop-opacity="1" stop-color="rgb(59.246826%, 38.545227%, 60.766602%)" offset="0.492188"/><stop stop-opacity="1" stop-color="rgb(58.839417%, 38.684082%, 61.167908%)" offset="0.496094"/><stop stop-opacity="1" stop-color="rgb(58.433533%, 38.824463%, 61.569214%)" offset="0.5"/><stop stop-opacity="1" stop-color="rgb(58.027649%, 38.963318%, 61.97052%)" offset="0.503906"/><stop stop-opacity="1" stop-color="rgb(57.621765%, 39.103699%, 62.371826%)" offset="0.507812"/><stop stop-opacity="1" stop-color="rgb(57.215881%, 39.242554%, 62.773132%)" offset="0.511719"/><stop stop-opacity="1" stop-color="rgb(56.809998%, 39.382935%, 63.175964%)" offset="0.515625"/><stop stop-opacity="1" stop-color="rgb(56.404114%, 39.523315%, 63.577271%)" offset="0.519531"/><stop stop-opacity="1" stop-color="rgb(55.99823%, 39.663696%, 63.978577%)" offset="0.523438"/><stop stop-opacity="1" stop-color="rgb(55.59082%, 39.802551%, 64.379883%)" offset="0.527344"/><stop stop-opacity="1" stop-color="rgb(55.184937%, 39.942932%, 64.781189%)" offset="0.53125"/><stop stop-opacity="1" stop-color="rgb(54.779053%, 40.081787%, 65.182495%)" offset="0.535156"/><stop stop-opacity="1" stop-color="rgb(54.373169%, 40.222168%, 65.585327%)" offset="0.539062"/><stop stop-opacity="1" stop-color="rgb(53.967285%, 40.362549%, 65.986633%)" offset="0.542969"/><stop stop-opacity="1" stop-color="rgb(53.561401%, 40.50293%, 66.387939%)" offset="0.546875"/><stop stop-opacity="1" stop-color="rgb(53.155518%, 40.641785%, 66.789246%)" offset="0.550781"/><stop stop-opacity="1" stop-color="rgb(52.749634%, 40.782166%, 67.190552%)" offset="0.554688"/><stop stop-opacity="1" stop-color="rgb(52.342224%, 40.921021%, 67.591858%)" offset="0.558594"/><stop stop-opacity="1" stop-color="rgb(51.93634%, 41.061401%, 67.993164%)" offset="0.5625"/><stop stop-opacity="1" stop-color="rgb(51.530457%, 41.201782%, 68.39447%)" offset="0.566406"/><stop stop-opacity="1" stop-color="rgb(51.124573%, 41.342163%, 68.797302%)" offset="0.570312"/><stop stop-opacity="1" stop-color="rgb(50.718689%, 41.481018%, 69.198608%)" offset="0.574219"/><stop stop-opacity="1" stop-color="rgb(50.312805%, 41.621399%, 69.599915%)" offset="0.578125"/><stop stop-opacity="1" stop-color="rgb(49.906921%, 41.760254%, 70.001221%)" offset="0.582031"/><stop stop-opacity="1" stop-color="rgb(49.501038%, 41.900635%, 70.402527%)" offset="0.585938"/><stop stop-opacity="1" stop-color="rgb(49.093628%, 42.03949%, 70.803833%)" offset="0.589844"/><stop stop-opacity="1" stop-color="rgb(48.687744%, 42.179871%, 71.206665%)" offset="0.59375"/><stop stop-opacity="1" stop-color="rgb(48.28186%, 42.320251%, 71.607971%)" offset="0.597656"/><stop stop-opacity="1" stop-color="rgb(47.875977%, 42.460632%, 72.009277%)" offset="0.601562"/><stop stop-opacity="1" stop-color="rgb(47.470093%, 42.599487%, 72.410583%)" offset="0.605469"/><stop stop-opacity="1" stop-color="rgb(47.064209%, 42.739868%, 72.81189%)" offset="0.609375"/><stop stop-opacity="1" stop-color="rgb(46.656799%, 42.878723%, 73.213196%)" offset="0.613281"/><stop stop-opacity="1" stop-color="rgb(46.250916%, 43.019104%, 73.616028%)" offset="0.617188"/><stop stop-opacity="1" stop-color="rgb(45.845032%, 43.159485%, 74.017334%)" offset="0.621094"/><stop stop-opacity="1" stop-color="rgb(45.439148%, 43.299866%, 74.41864%)" offset="0.625"/><stop stop-opacity="1" stop-color="rgb(45.033264%, 43.438721%, 74.819946%)" offset="0.628906"/><stop stop-opacity="1" stop-color="rgb(44.62738%, 43.579102%, 75.221252%)" offset="0.632812"/><stop stop-opacity="1" stop-color="rgb(44.221497%, 43.717957%, 75.622559%)" offset="0.636719"/><stop stop-opacity="1" stop-color="rgb(43.815613%, 43.858337%, 76.025391%)" offset="0.640625"/><stop stop-opacity="1" stop-color="rgb(43.408203%, 43.998718%, 76.426697%)" offset="0.644531"/><stop stop-opacity="1" stop-color="rgb(43.002319%, 44.139099%, 76.828003%)" offset="0.648438"/><stop stop-opacity="1" stop-color="rgb(42.596436%, 44.277954%, 77.229309%)" offset="0.652344"/><stop stop-opacity="1" stop-color="rgb(42.190552%, 44.418335%, 77.630615%)" offset="0.65625"/><stop stop-opacity="1" stop-color="rgb(41.784668%, 44.55719%, 78.031921%)" offset="0.660156"/><stop stop-opacity="1" stop-color="rgb(41.378784%, 44.697571%, 78.434753%)" offset="0.664062"/><stop stop-opacity="1" stop-color="rgb(40.9729%, 44.837952%, 78.83606%)" offset="0.667969"/><stop stop-opacity="1" stop-color="rgb(40.567017%, 44.978333%, 79.237366%)" offset="0.671875"/><stop stop-opacity="1" stop-color="rgb(40.159607%, 45.117188%, 79.638672%)" offset="0.675781"/><stop stop-opacity="1" stop-color="rgb(39.753723%, 45.257568%, 80.039978%)" offset="0.679688"/><stop stop-opacity="1" stop-color="rgb(39.347839%, 45.396423%, 80.441284%)" offset="0.683594"/><stop stop-opacity="1" stop-color="rgb(38.941956%, 45.536804%, 80.84259%)" offset="0.6875"/><stop stop-opacity="1" stop-color="rgb(38.536072%, 45.675659%, 81.243896%)" offset="0.691406"/><stop stop-opacity="1" stop-color="rgb(38.130188%, 45.81604%, 81.646729%)" offset="0.695312"/><stop stop-opacity="1" stop-color="rgb(37.724304%, 45.956421%, 82.048035%)" offset="0.699219"/><stop stop-opacity="1" stop-color="rgb(37.31842%, 46.096802%, 82.449341%)" offset="0.703125"/><stop stop-opacity="1" stop-color="rgb(36.911011%, 46.235657%, 82.850647%)" offset="0.707031"/><stop stop-opacity="1" stop-color="rgb(36.505127%, 46.376038%, 83.251953%)" offset="0.710938"/><stop stop-opacity="1" stop-color="rgb(36.099243%, 46.514893%, 83.653259%)" offset="0.714844"/><stop stop-opacity="1" stop-color="rgb(35.693359%, 46.655273%, 84.056091%)" offset="0.71875"/><stop stop-opacity="1" stop-color="rgb(35.287476%, 46.795654%, 84.457397%)" offset="0.722656"/><stop stop-opacity="1" stop-color="rgb(34.881592%, 46.936035%, 84.858704%)" offset="0.726562"/><stop stop-opacity="1" stop-color="rgb(34.474182%, 47.07489%, 85.26001%)" offset="0.730469"/><stop stop-opacity="1" stop-color="rgb(34.068298%, 47.215271%, 85.661316%)" offset="0.734375"/><stop stop-opacity="1" stop-color="rgb(33.662415%, 47.354126%, 86.062622%)" offset="0.738281"/><stop stop-opacity="1" stop-color="rgb(33.256531%, 47.494507%, 86.465454%)" offset="0.742187"/><stop stop-opacity="1" stop-color="rgb(32.850647%, 47.634888%, 86.86676%)" offset="0.746094"/><stop stop-opacity="1" stop-color="rgb(32.444763%, 47.775269%, 87.268066%)" offset="0.75"/><stop stop-opacity="1" stop-color="rgb(32.038879%, 47.914124%, 87.669373%)" offset="0.753906"/><stop stop-opacity="1" stop-color="rgb(31.632996%, 48.054504%, 88.070679%)" offset="0.757812"/><stop stop-opacity="1" stop-color="rgb(31.225586%, 48.193359%, 88.471985%)" offset="0.761719"/><stop stop-opacity="1" stop-color="rgb(30.819702%, 48.33374%, 88.874817%)" offset="0.765625"/><stop stop-opacity="1" stop-color="rgb(30.413818%, 48.472595%, 89.276123%)" offset="0.769531"/><stop stop-opacity="1" stop-color="rgb(30.007935%, 48.612976%, 89.677429%)" offset="0.773438"/><stop stop-opacity="1" stop-color="rgb(29.602051%, 48.753357%, 90.078735%)" offset="0.777344"/><stop stop-opacity="1" stop-color="rgb(29.196167%, 48.893738%, 90.480042%)" offset="0.78125"/><stop stop-opacity="1" stop-color="rgb(28.790283%, 49.032593%, 90.881348%)" offset="0.785156"/><stop stop-opacity="1" stop-color="rgb(28.384399%, 49.172974%, 91.282654%)" offset="0.789062"/><stop stop-opacity="1" stop-color="rgb(27.97699%, 49.311829%, 91.68396%)" offset="0.792969"/><stop stop-opacity="1" stop-color="rgb(27.571106%, 49.452209%, 92.086792%)" offset="0.796875"/><stop stop-opacity="1" stop-color="rgb(27.165222%, 49.59259%, 92.488098%)" offset="0.800781"/><stop stop-opacity="1" stop-color="rgb(26.759338%, 49.732971%, 92.889404%)" offset="0.804687"/><stop stop-opacity="1" stop-color="rgb(26.353455%, 49.871826%, 93.29071%)" offset="0.808594"/><stop stop-opacity="1" stop-color="rgb(25.947571%, 50.012207%, 93.692017%)" offset="0.8125"/><stop stop-opacity="1" stop-color="rgb(25.541687%, 50.151062%, 94.093323%)" offset="0.816406"/><stop stop-opacity="1" stop-color="rgb(25.135803%, 50.291443%, 94.496155%)" offset="0.820312"/><stop stop-opacity="1" stop-color="rgb(24.728394%, 50.431824%, 94.897461%)" offset="0.824219"/><stop stop-opacity="1" stop-color="rgb(24.32251%, 50.572205%, 95.298767%)" offset="0.828125"/><stop stop-opacity="1" stop-color="rgb(23.916626%, 50.71106%, 95.700073%)" offset="0.832031"/><stop stop-opacity="1" stop-color="rgb(23.510742%, 50.85144%, 96.101379%)" offset="0.835937"/><stop stop-opacity="1" stop-color="rgb(23.324585%, 50.915527%, 96.284485%)" offset="0.84375"/><stop stop-opacity="1" stop-color="rgb(23.139954%, 50.979614%, 96.469116%)" offset="0.875"/><stop stop-opacity="1" stop-color="rgb(23.139954%, 50.979614%, 96.469116%)" offset="1"/></linearGradient><clipPath id="988996ff3d"><rect x="0" width="178" y="0" height="75"/></clipPath><clipPath id="9ee61cae9e"><path d="M 0.996094 0 L 177.011719 0 L 177.011719 75 L 0.996094 75 Z M 0.996094 0 " clip-rule="nonzero"/></clipPath><clipPath id="585a1904d0"><rect x="0" width="178" y="0" height="75"/></clipPath><clipPath id="21b221d249"><rect x="0" width="178" y="0" height="75"/></clipPath><mask id="f0f61f6467"><g filter="url(#619db68022)"><g transform="matrix(1, 0, 0, 1, 0, -0.000000000000001893)"><g clip-path="url(#21b221d249)"><g clip-path="url(#9ee61cae9e)"><g transform="matrix(1, 0, 0, 1, 0, -0.000000000000001893)"><g clip-path="url(#585a1904d0)"><g fill="#000000" fill-opacity="1"><g transform="translate(29.249198, 42.49114)"><g><path d="M 6.484375 -6.453125 C 6.722656 -6.453125 6.972656 -6.398438 7.234375 -6.296875 C 7.503906 -6.191406 7.765625 -6.054688 8.015625 -5.890625 L 8 -5.890625 C 8.238281 -5.722656 8.421875 -5.492188 8.546875 -5.203125 C 8.679688 -4.910156 8.75 -4.570312 8.75 -4.1875 L 8.75 -2.265625 C 8.75 -1.492188 8.5 -0.921875 8 -0.546875 C 7.75 -0.367188 7.492188 -0.226562 7.234375 -0.125 C 6.972656 -0.03125 6.722656 0.015625 6.484375 0.015625 L 3.40625 0.015625 C 3.15625 0.015625 2.898438 -0.03125 2.640625 -0.125 C 2.390625 -0.226562 2.140625 -0.367188 1.890625 -0.546875 C 1.378906 -0.921875 1.125 -1.492188 1.125 -2.265625 L 1.125 -3.1875 C 1.125 -3.632812 1.40625 -3.859375 1.96875 -3.859375 C 2.53125 -3.859375 2.8125 -3.632812 2.8125 -3.1875 L 2.8125 -2.375 C 2.8125 -2.125 2.878906 -1.898438 3.015625 -1.703125 C 3.160156 -1.503906 3.40625 -1.40625 3.75 -1.40625 L 6.125 -1.40625 C 6.476562 -1.40625 6.722656 -1.503906 6.859375 -1.703125 C 7.003906 -1.898438 7.078125 -2.125 7.078125 -2.375 L 7.078125 -4.078125 C 7.078125 -4.316406 7.003906 -4.535156 6.859375 -4.734375 C 6.722656 -4.941406 6.476562 -5.046875 6.125 -5.046875 L 3.40625 -5.046875 C 2.914062 -5.046875 2.410156 -5.222656 1.890625 -5.578125 C 1.378906 -5.972656 1.125 -6.539062 1.125 -7.28125 L 1.125 -8.96875 C 1.125 -9.34375 1.191406 -9.671875 1.328125 -9.953125 C 1.460938 -10.242188 1.648438 -10.484375 1.890625 -10.671875 L 1.875 -10.671875 C 2.125 -10.828125 2.378906 -10.957031 2.640625 -11.0625 C 2.898438 -11.164062 3.15625 -11.21875 3.40625 -11.21875 L 6.484375 -11.21875 C 6.722656 -11.21875 6.972656 -11.164062 7.234375 -11.0625 C 7.503906 -10.957031 7.765625 -10.828125 8.015625 -10.671875 L 8 -10.671875 C 8.238281 -10.484375 8.421875 -10.242188 8.546875 -9.953125 C 8.679688 -9.671875 8.75 -9.34375 8.75 -8.96875 L 8.75 -8.140625 C 8.75 -7.691406 8.46875 -7.46875 7.90625 -7.46875 C 7.351562 -7.46875 7.078125 -7.691406 7.078125 -8.140625 L 7.078125 -8.84375 C 7.078125 -9.082031 7.003906 -9.296875 6.859375 -9.484375 C 6.722656 -9.679688 6.476562 -9.78125 6.125 -9.78125 L 3.75 -9.78125 C 3.40625 -9.78125 3.160156 -9.679688 3.015625 -9.484375 C 2.878906 -9.296875 2.8125 -9.082031 2.8125 -8.84375 L 2.8125 -7.40625 C 2.8125 -7.15625 2.878906 -6.929688 3.015625 -6.734375 C 3.160156 -6.546875 3.40625 -6.453125 3.75 -6.453125 Z M 6.484375 -6.453125 "/></g></g></g><g fill="#000000" fill-opacity="1"><g transform="translate(39.092178, 42.49114)"><g><path d="M 2.03125 0.015625 C 1.6875 0.015625 1.453125 -0.0703125 1.328125 -0.25 C 1.203125 -0.425781 1.140625 -0.625 1.140625 -0.84375 L 1.140625 -10.375 C 1.140625 -10.582031 1.203125 -10.773438 1.328125 -10.953125 C 1.453125 -11.128906 1.6875 -11.21875 2.03125 -11.21875 L 6.953125 -11.21875 C 7.296875 -11.21875 7.476562 -10.984375 7.5 -10.515625 C 7.519531 -10.023438 7.335938 -9.78125 6.953125 -9.78125 L 2.8125 -9.78125 L 2.8125 -1.40625 L 7.203125 -1.40625 C 7.546875 -1.40625 7.722656 -1.175781 7.734375 -0.71875 C 7.753906 -0.226562 7.578125 0.015625 7.203125 0.015625 Z M 6.421875 -5.828125 C 6.421875 -5.503906 6.304688 -5.226562 6.078125 -5 C 5.847656 -4.769531 5.566406 -4.65625 5.234375 -4.65625 C 4.921875 -4.65625 4.648438 -4.769531 4.421875 -5 C 4.191406 -5.226562 4.078125 -5.503906 4.078125 -5.828125 C 4.078125 -6.160156 4.191406 -6.4375 4.421875 -6.65625 C 4.648438 -6.882812 4.921875 -7 5.234375 -7 C 5.566406 -7 5.847656 -6.882812 6.078125 -6.65625 C 6.304688 -6.4375 6.421875 -6.160156 6.421875 -5.828125 Z M 6.421875 -5.828125 "/></g></g></g><g fill="#000000" fill-opacity="1"><g transform="translate(47.226406, 42.49114)"><g><path d="M 4.90625 -0.5625 C 4.90625 -0.113281 4.617188 0.109375 4.046875 0.109375 C 3.492188 0.109375 3.21875 -0.113281 3.21875 -0.5625 L 3.21875 -9.78125 L 0.75 -9.78125 C 0.40625 -9.78125 0.226562 -10.023438 0.21875 -10.515625 C 0.21875 -10.984375 0.394531 -11.21875 0.75 -11.21875 L 7.375 -11.21875 C 7.726562 -11.21875 7.894531 -10.984375 7.875 -10.515625 C 7.875 -10.023438 7.707031 -9.78125 7.375 -9.78125 L 4.90625 -9.78125 Z M 4.90625 -0.5625 "/></g></g></g><g fill="#000000" fill-opacity="1"><g transform="translate(55.233537, 42.49114)"><g><path d="M 2.015625 0.015625 C 1.671875 0.015625 1.4375 -0.0703125 1.3125 -0.25 C 1.1875 -0.425781 1.125 -0.625 1.125 -0.84375 L 1.125 -10.609375 C 1.125 -11.054688 1.398438 -11.28125 1.953125 -11.28125 C 2.515625 -11.28125 2.796875 -11.054688 2.796875 -10.609375 L 2.796875 -1.40625 L 7.515625 -1.40625 C 7.847656 -1.40625 8.015625 -1.175781 8.015625 -0.71875 C 8.035156 -0.226562 7.867188 0.015625 7.515625 0.015625 Z M 2.015625 0.015625 "/></g></g></g><g fill="#000000" fill-opacity="1"><g transform="translate(63.424251, 42.49114)"><g><path d="M 2.875 -0.59375 C 2.875 -0.144531 2.585938 0.078125 2.015625 0.078125 C 1.460938 0.078125 1.1875 -0.144531 1.1875 -0.59375 L 1.1875 -10.609375 C 1.1875 -11.054688 1.460938 -11.28125 2.015625 -11.28125 C 2.585938 -11.28125 2.875 -11.054688 2.875 -10.609375 Z M 2.875 -0.59375 "/></g></g></g><g fill="#000000" fill-opacity="1"><g transform="translate(67.420756, 42.49114)"><g><path d="M 6.484375 -6.453125 C 6.722656 -6.453125 6.972656 -6.398438 7.234375 -6.296875 C 7.503906 -6.191406 7.765625 -6.054688 8.015625 -5.890625 L 8 -5.890625 C 8.238281 -5.722656 8.421875 -5.492188 8.546875 -5.203125 C 8.679688 -4.910156 8.75 -4.570312 8.75 -4.1875 L 8.75 -2.265625 C 8.75 -1.492188 8.5 -0.921875 8 -0.546875 C 7.75 -0.367188 7.492188 -0.226562 7.234375 -0.125 C 6.972656 -0.03125 6.722656 0.015625 6.484375 0.015625 L 3.40625 0.015625 C 3.15625 0.015625 2.898438 -0.03125 2.640625 -0.125 C 2.390625 -0.226562 2.140625 -0.367188 1.890625 -0.546875 C 1.378906 -0.921875 1.125 -1.492188 1.125 -2.265625 L 1.125 -3.1875 C 1.125 -3.632812 1.40625 -3.859375 1.96875 -3.859375 C 2.53125 -3.859375 2.8125 -3.632812 2.8125 -3.1875 L 2.8125 -2.375 C 2.8125 -2.125 2.878906 -1.898438 3.015625 -1.703125 C 3.160156 -1.503906 3.40625 -1.40625 3.75 -1.40625 L 6.125 -1.40625 C 6.476562 -1.40625 6.722656 -1.503906 6.859375 -1.703125 C 7.003906 -1.898438 7.078125 -2.125 7.078125 -2.375 L 7.078125 -4.078125 C 7.078125 -4.316406 7.003906 -4.535156 6.859375 -4.734375 C 6.722656 -4.941406 6.476562 -5.046875 6.125 -5.046875 L 3.40625 -5.046875 C 2.914062 -5.046875 2.410156 -5.222656 1.890625 -5.578125 C 1.378906 -5.972656 1.125 -6.539062 1.125 -7.28125 L 1.125 -8.96875 C 1.125 -9.34375 1.191406 -9.671875 1.328125 -9.953125 C 1.460938 -10.242188 1.648438 -10.484375 1.890625 -10.671875 L 1.875 -10.671875 C 2.125 -10.828125 2.378906 -10.957031 2.640625 -11.0625 C 2.898438 -11.164062 3.15625 -11.21875 3.40625 -11.21875 L 6.484375 -11.21875 C 6.722656 -11.21875 6.972656 -11.164062 7.234375 -11.0625 C 7.503906 -10.957031 7.765625 -10.828125 8.015625 -10.671875 L 8 -10.671875 C 8.238281 -10.484375 8.421875 -10.242188 8.546875 -9.953125 C 8.679688 -9.671875 8.75 -9.34375 8.75 -8.96875 L 8.75 -8.140625 C 8.75 -7.691406 8.46875 -7.46875 7.90625 -7.46875 C 7.351562 -7.46875 7.078125 -7.691406 7.078125 -8.140625 L 7.078125 -8.84375 C 7.078125 -9.082031 7.003906 -9.296875 6.859375 -9.484375 C 6.722656 -9.679688 6.476562 -9.78125 6.125 -9.78125 L 3.75 -9.78125 C 3.40625 -9.78125 3.160156 -9.679688 3.015625 -9.484375 C 2.878906 -9.296875 2.8125 -9.082031 2.8125 -8.84375 L 2.8125 -7.40625 C 2.8125 -7.15625 2.878906 -6.929688 3.015625 -6.734375 C 3.160156 -6.546875 3.40625 -6.453125 3.75 -6.453125 Z M 6.484375 -6.453125 "/></g></g></g><g fill="#000000" fill-opacity="1"><g transform="translate(77.263738, 42.49114)"><g><path d="M 4.90625 -0.5625 C 4.90625 -0.113281 4.617188 0.109375 4.046875 0.109375 C 3.492188 0.109375 3.21875 -0.113281 3.21875 -0.5625 L 3.21875 -9.78125 L 0.75 -9.78125 C 0.40625 -9.78125 0.226562 -10.023438 0.21875 -10.515625 C 0.21875 -10.984375 0.394531 -11.21875 0.75 -11.21875 L 7.375 -11.21875 C 7.726562 -11.21875 7.894531 -10.984375 7.875 -10.515625 C 7.875 -10.023438 7.707031 -9.78125 7.375 -9.78125 L 4.90625 -9.78125 Z M 4.90625 -0.5625 "/></g></g></g><g fill="#000000" fill-opacity="1"><g transform="translate(85.270867, 42.49114)"><g/></g></g><g fill="#000000" fill-opacity="1"><g transform="translate(89.507442, 42.49114)"><g><path d="M 4.1875 -4.15625 C 4.03125 -4.15625 3.90625 -4.21875 3.8125 -4.34375 C 3.726562 -4.46875 3.6875 -4.640625 3.6875 -4.859375 C 3.6875 -5.335938 3.882812 -5.578125 4.28125 -5.578125 L 5.78125 -5.578125 C 6.125 -5.578125 6.367188 -5.675781 6.515625 -5.875 C 6.660156 -6.070312 6.734375 -6.289062 6.734375 -6.53125 L 6.734375 -8.84375 C 6.734375 -9.082031 6.660156 -9.296875 6.515625 -9.484375 C 6.367188 -9.679688 6.125 -9.78125 5.78125 -9.78125 L 2.8125 -9.78125 L 2.8125 -0.5625 C 2.8125 -0.113281 2.53125 0.109375 1.96875 0.109375 C 1.414062 0.109375 1.140625 -0.113281 1.140625 -0.5625 L 1.140625 -10.375 C 1.140625 -10.707031 1.222656 -10.929688 1.390625 -11.046875 C 1.566406 -11.160156 1.773438 -11.21875 2.015625 -11.21875 L 6.140625 -11.21875 C 6.378906 -11.21875 6.628906 -11.164062 6.890625 -11.0625 C 7.148438 -10.957031 7.40625 -10.828125 7.65625 -10.671875 L 7.640625 -10.671875 C 7.890625 -10.484375 8.078125 -10.242188 8.203125 -9.953125 C 8.335938 -9.671875 8.40625 -9.34375 8.40625 -8.96875 L 8.40625 -6.40625 C 8.40625 -5.644531 8.148438 -5.078125 7.640625 -4.703125 C 7.398438 -4.523438 7.148438 -4.390625 6.890625 -4.296875 C 6.640625 -4.203125 6.390625 -4.15625 6.140625 -4.15625 Z M 4.1875 -4.15625 "/></g></g></g><g fill="#000000" fill-opacity="1"><g transform="translate(98.926766, 42.49114)"><g><path d="M 2.875 -0.59375 C 2.875 -0.144531 2.585938 0.078125 2.015625 0.078125 C 1.460938 0.078125 1.1875 -0.144531 1.1875 -0.59375 L 1.1875 -10.609375 C 1.1875 -11.054688 1.460938 -11.28125 2.015625 -11.28125 C 2.585938 -11.28125 2.875 -11.054688 2.875 -10.609375 Z M 2.875 -0.59375 "/></g></g></g><g fill="#000000" fill-opacity="1"><g transform="translate(102.923269, 42.49114)"><g><path d="M 8.75 -2.265625 C 8.75 -1.492188 8.492188 -0.921875 7.984375 -0.546875 C 7.734375 -0.367188 7.476562 -0.226562 7.21875 -0.125 C 6.96875 -0.03125 6.71875 0.015625 6.46875 0.015625 L 3.390625 0.015625 C 3.140625 0.015625 2.882812 -0.03125 2.625 -0.125 C 2.375 -0.226562 2.125 -0.367188 1.875 -0.546875 C 1.632812 -0.734375 1.445312 -0.96875 1.3125 -1.25 C 1.175781 -1.53125 1.109375 -1.867188 1.109375 -2.265625 L 1.109375 -8.96875 C 1.109375 -9.34375 1.175781 -9.671875 1.3125 -9.953125 C 1.445312 -10.242188 1.632812 -10.484375 1.875 -10.671875 L 1.859375 -10.671875 C 2.109375 -10.828125 2.363281 -10.957031 2.625 -11.0625 C 2.882812 -11.164062 3.140625 -11.21875 3.390625 -11.21875 L 6.46875 -11.21875 C 6.71875 -11.21875 6.972656 -11.164062 7.234375 -11.0625 C 7.492188 -10.957031 7.75 -10.828125 8 -10.671875 L 7.984375 -10.671875 C 8.222656 -10.484375 8.410156 -10.242188 8.546875 -9.953125 C 8.679688 -9.671875 8.75 -9.34375 8.75 -8.96875 L 8.75 -8 C 8.75 -7.539062 8.460938 -7.3125 7.890625 -7.3125 C 7.335938 -7.3125 7.0625 -7.539062 7.0625 -8 L 7.0625 -8.84375 C 7.0625 -9.082031 6.988281 -9.296875 6.84375 -9.484375 C 6.707031 -9.679688 6.460938 -9.78125 6.109375 -9.78125 L 3.75 -9.78125 C 3.394531 -9.78125 3.144531 -9.679688 3 -9.484375 C 2.863281 -9.296875 2.796875 -9.082031 2.796875 -8.84375 L 2.796875 -2.375 C 2.796875 -2.125 2.863281 -1.898438 3 -1.703125 C 3.144531 -1.503906 3.394531 -1.40625 3.75 -1.40625 L 6.109375 -1.40625 C 6.460938 -1.40625 6.707031 -1.503906 6.84375 -1.703125 C 6.988281 -1.898438 7.0625 -2.125 7.0625 -2.375 L 7.0625 -3.1875 C 7.0625 -3.632812 7.335938 -3.859375 7.890625 -3.859375 C 8.460938 -3.859375 8.75 -3.632812 8.75 -3.1875 Z M 8.75 -2.265625 "/></g></g></g><g fill="#000000" fill-opacity="1"><g transform="translate(112.582668, 42.49114)"><g><path d="M 7.109375 -11.046875 C 7.242188 -11.210938 7.398438 -11.296875 7.578125 -11.296875 C 7.773438 -11.296875 7.976562 -11.207031 8.1875 -11.03125 C 8.289062 -10.925781 8.378906 -10.820312 8.453125 -10.71875 C 8.523438 -10.613281 8.5625 -10.507812 8.5625 -10.40625 C 8.5625 -10.238281 8.5 -10.09375 8.375 -9.96875 L 6.484375 -7.765625 L 2.796875 -3.4375 L 2.796875 -0.59375 C 2.796875 -0.144531 2.515625 0.078125 1.953125 0.078125 C 1.390625 0.078125 1.109375 -0.144531 1.109375 -0.59375 L 1.109375 -10.609375 C 1.109375 -11.054688 1.390625 -11.28125 1.953125 -11.28125 C 2.515625 -11.28125 2.796875 -11.054688 2.796875 -10.609375 L 2.796875 -5.984375 Z M 5.09375 -4.34375 C 5 -4.46875 4.953125 -4.625 4.953125 -4.8125 C 4.953125 -5.09375 5.070312 -5.320312 5.3125 -5.5 L 5.296875 -5.5 C 5.484375 -5.625 5.671875 -5.6875 5.859375 -5.6875 C 6.035156 -5.6875 6.1875 -5.582031 6.3125 -5.375 L 9.046875 -1.390625 L 9.03125 -1.40625 C 9.113281 -1.28125 9.15625 -1.140625 9.15625 -0.984375 C 9.15625 -0.742188 9.03125 -0.53125 8.78125 -0.34375 L 8.796875 -0.34375 C 8.691406 -0.269531 8.59375 -0.210938 8.5 -0.171875 C 8.40625 -0.140625 8.320312 -0.125 8.25 -0.125 C 8.175781 -0.125 8.097656 -0.148438 8.015625 -0.203125 C 7.929688 -0.265625 7.851562 -0.335938 7.78125 -0.421875 Z M 5.09375 -4.34375 "/></g></g></g><g fill="#000000" fill-opacity="1"><g transform="translate(121.776035, 42.49114)"><g/></g></g><g fill="#000000" fill-opacity="1"><g transform="translate(126.012614, 42.49114)"><g><path d="M 0.25 -6.625 L 0.171875 -6.78125 C 0.304688 -7.269531 0.484375 -7.816406 0.703125 -8.421875 C 0.929688 -9.035156 1.160156 -9.585938 1.390625 -10.078125 L 2.296875 -10.078125 C 2.210938 -9.722656 2.125 -9.335938 2.03125 -8.921875 C 1.9375 -8.515625 1.851562 -8.113281 1.78125 -7.71875 C 1.707031 -7.320312 1.644531 -6.957031 1.59375 -6.625 Z M 0.25 -6.625 "/></g></g></g><g fill="#000000" fill-opacity="1"><g transform="translate(128.483953, 42.49114)"><g><path d="M 2.03125 0.015625 C 1.6875 0.015625 1.453125 -0.0703125 1.328125 -0.25 C 1.203125 -0.425781 1.140625 -0.625 1.140625 -0.84375 L 1.140625 -10.375 C 1.140625 -10.582031 1.203125 -10.773438 1.328125 -10.953125 C 1.453125 -11.128906 1.6875 -11.21875 2.03125 -11.21875 L 6.953125 -11.21875 C 7.296875 -11.21875 7.476562 -10.984375 7.5 -10.515625 C 7.519531 -10.023438 7.335938 -9.78125 6.953125 -9.78125 L 2.8125 -9.78125 L 2.8125 -1.40625 L 7.203125 -1.40625 C 7.546875 -1.40625 7.722656 -1.175781 7.734375 -0.71875 C 7.753906 -0.226562 7.578125 0.015625 7.203125 0.015625 Z M 6.421875 -5.828125 C 6.421875 -5.503906 6.304688 -5.226562 6.078125 -5 C 5.847656 -4.769531 5.566406 -4.65625 5.234375 -4.65625 C 4.921875 -4.65625 4.648438 -4.769531 4.421875 -5 C 4.191406 -5.226562 4.078125 -5.503906 4.078125 -5.828125 C 4.078125 -6.160156 4.191406 -6.4375 4.421875 -6.65625 C 4.648438 -6.882812 4.921875 -7 5.234375 -7 C 5.566406 -7 5.847656 -6.882812 6.078125 -6.65625 C 6.304688 -6.4375 6.421875 -6.160156 6.421875 -5.828125 Z M 6.421875 -5.828125 "/></g></g></g><g fill="#000000" fill-opacity="1"><g transform="translate(136.61818, 42.49114)"><g><path d="M 9.78125 -11.28125 C 10.082031 -11.28125 10.414062 -11.210938 10.78125 -11.078125 C 11.101562 -10.941406 11.265625 -10.691406 11.265625 -10.328125 L 11.265625 -0.59375 C 11.265625 -0.144531 10.988281 0.078125 10.4375 0.078125 C 9.882812 0.078125 9.609375 -0.144531 9.609375 -0.59375 L 9.609375 -7.859375 L 9.203125 -7.890625 L 8.625 -6.0625 L 6.9375 -0.40625 C 6.832031 -0.0820312 6.578125 0.078125 6.171875 0.078125 C 5.992188 0.0664062 5.835938 0.0195312 5.703125 -0.0625 C 5.578125 -0.15625 5.488281 -0.28125 5.4375 -0.4375 L 4.421875 -3.734375 C 4.210938 -4.378906 4.003906 -5.035156 3.796875 -5.703125 C 3.585938 -6.378906 3.363281 -7.128906 3.125 -7.953125 L 2.71875 -7.890625 L 2.71875 -0.59375 C 2.71875 -0.144531 2.4375 0.078125 1.875 0.078125 C 1.320312 0.078125 1.046875 -0.144531 1.046875 -0.59375 L 1.046875 -10.328125 C 1.046875 -10.679688 1.210938 -10.929688 1.546875 -11.078125 C 1.890625 -11.210938 2.222656 -11.273438 2.546875 -11.265625 C 2.679688 -11.265625 2.820312 -11.242188 2.96875 -11.203125 C 3.125 -11.171875 3.269531 -11.117188 3.40625 -11.046875 C 3.539062 -10.984375 3.65625 -10.894531 3.75 -10.78125 C 3.851562 -10.675781 3.9375 -10.550781 4 -10.40625 L 6.21875 -2.859375 C 6.375 -3.410156 6.539062 -4.007812 6.71875 -4.65625 C 6.894531 -5.3125 7.078125 -5.972656 7.265625 -6.640625 C 7.460938 -7.304688 7.648438 -7.96875 7.828125 -8.625 C 8.015625 -9.28125 8.1875 -9.890625 8.34375 -10.453125 C 8.40625 -10.585938 8.488281 -10.707031 8.59375 -10.8125 C 8.695312 -10.914062 8.8125 -11 8.9375 -11.0625 C 9.070312 -11.132812 9.210938 -11.1875 9.359375 -11.21875 C 9.503906 -11.257812 9.644531 -11.28125 9.78125 -11.28125 Z M 9.78125 -11.28125 "/></g></g></g></g></g></g></g></g></g></mask><clipPath id="266cd497a2"><path d="M 0.996094 2.152344 L 177.011719 2.152344 L 177.011719 72.785156 L 0.996094 72.785156 Z M 0.996094 2.152344 " clip-rule="nonzero"/></clipPath><clipPath id="9fc7a84a2e"><rect x="0" width="178" y="0" height="75"/></clipPath><clipPath id="a2c2b75b3d"><rect x="0" width="178" y="0" height="75"/></clipPath><clipPath id="b4aae99922"><rect x="0" width="178" y="0" height="75"/></clipPath></defs><g transform="matrix(1, 0, 0, 1, 61, -0.000000000000001893)"><g clip-path="url(#b4aae99922)"><g clip-path="url(#e6958d1aca)"><g transform="matrix(1, 0, 0, 1, 0, -0.000000000000001893)"><g clip-path="url(#a2c2b75b3d)"><g clip-path="url(#086fc228a1)"><g mask="url(#f0f61f6467)"><g transform="matrix(1, 0, 0, 1, 0, -0.000000000000001893)"><g clip-path="url(#9fc7a84a2e)"><g clip-path="url(#266cd497a2)"><path fill="url(#bd75624a2c)" d="M 0.996094 2.152344 L 0.996094 72.785156 L 177.011719 72.785156 L 177.011719 2.152344 Z M 0.996094 2.152344 " fill-rule="nonzero"/></g></g></g></g></g></g></g></g></g></g></svg>